<svg xmlns="http://www.w3.org/2000/svg" viewBox="0 0 24 24" fill="none" stroke="currentColor" stroke-linecap="round" stroke-linejoin="round">
  <path stroke-width="1.65" d="M4.25 6.55c0-.83.67-1.5 1.5-1.5h3.9c.48 0 .93.23 1.21.62l.62.86c.28.39.73.62 1.21.62h5.55c.97 0 1.75.78 1.75 1.75v1.15" />
  <path stroke-width="1.65" d="M4.25 6.55v9.05c0 .97.78 1.75 1.75 1.75h5.3" />
  <path stroke-width="1.65" d="M6 17.35h5.3" />
  <circle cx="16.7" cy="16.7" r="2.95" stroke-width="1.35" />
  <path stroke-width="1.35" d="M13.75 16.7h5.9" />
  <path stroke-width="1.35" d="M16.7 13.75c.68.78 1.02 1.76 1.02 2.95s-.34 2.17-1.02 2.95" />
  <path stroke-width="1.35" d="M16.7 13.75c-.68.78-1.02 1.76-1.02 2.95s.34 2.17 1.02 2.95" />
</svg>
